<?xml version="1.0" encoding="UTF-8"?>
<svg width="76px" height="89px" viewBox="0 0 76 89" version="1.1" xmlns="http://www.w3.org/2000/svg" xmlns:xlink="http://www.w3.org/1999/xlink">
    <!-- Generator: Sketch 46.2 (44496) - http://www.bohemiancoding.com/sketch -->
    <title>Lakeside Logo</title>
    <desc>Lakeside logo</desc>
    <defs></defs>
    <g id="Symbols" stroke="none" stroke-width="1" fill="none" fill-rule="evenodd">
        <!-- <g id="Lakeside-Logo" fill="#FBFBFB"> -->
        <g id="Lakeside-Logo" fill="#fff">
            <path d="M23.5852559,43.9521683 C24.0790023,44.9740332 24.6782078,45.9354064 25.3687423,46.8221575 L14.8699991,57.3209007 C11.5664404,53.5636354 9.16388145,48.994832 8,43.9521683 L23.5852559,43.9521683 Z M31.0478317,51.4147441 L31.0478317,67 C26.005168,65.8361186 21.4363646,63.4335596 17.6790993,60.1300009 L28.1778425,49.6312577 C29.0645936,50.3217922 30.0259668,50.9209977 31.0478317,51.4147441 Z M52.4147441,30.0478317 C51.9209977,29.0259668 51.3217922,28.0645936 50.6312577,27.1778425 L61.1300009,16.6790993 C64.4335596,20.4363646 66.8361186,25.005168 68,30.0478317 L52.4147441,30.0478317 Z M44.9521683,22.5852559 L44.9521683,7 C49.994832,8.16388145 54.5636354,10.5664404 58.3209007,13.8699991 L47.8221575,24.3687423 C46.9354064,23.6782078 45.9740332,23.0790023 44.9521683,22.5852559 Z M23.5852559,30.0478317 L8,30.0478317 C9.16388145,25.005168 11.5664404,20.4363646 14.8699991,16.6790993 L25.3687423,27.1778425 C24.6782078,28.0645936 24.0790023,29.0259668 23.5852559,30.0478317 Z M31.0478317,22.5852559 C30.0259668,23.0790023 29.0645936,23.6782078 28.1778425,24.3687423 L17.6790993,13.8699991 C21.4363646,10.5664404 26.005168,8.16388145 31.0478317,7 L31.0478317,22.5852559 Z M52.4147441,43.9521683 L68,43.9521683 C66.8361186,48.994832 64.4335596,53.5636354 61.1300009,57.3209007 L50.6312577,46.8221575 C51.3217922,45.9354064 51.9209977,44.9740332 52.4147441,43.9521683 Z M44.9521683,51.4147441 C45.9740332,50.9209977 46.9354064,50.3217922 47.8221575,49.6312577 L58.3209007,60.1300009 C54.5636354,63.4335596 49.994832,65.8361186 44.9521683,67 L44.9521683,51.4147441 Z" id="Combined-Shape"></path>
            <path d="M41,34 L41,1 C41,0.44771525 40.5522847,-1.01453063e-16 40,0 L36,0 C35.4477153,1.01453063e-16 35,0.44771525 35,1 L35,1 L35,34 L1,34 C0.44771525,34 2.38526325e-16,34.4477153 3.061617e-16,35 L6.123234e-17,39 L6.123234e-17,39 C1.28867715e-16,39.5522847 0.44771525,40 1,40 L1,40 L35,40 L35,88 C35,88.5522847 35.4477153,89 36,89 L40,89 C40.5522847,89 41,88.5522847 41,88 L41,40 L75,40 C75.5522847,40 76,39.5522847 76,39 L76,35 C76,34.4477153 75.5522847,34 75,34 L41,34 Z" id="Combined-Shape"></path>
        </g>
    </g>
</svg>
